<svg height='100px' width='100px'  fill="#000000" xmlns="http://www.w3.org/2000/svg" viewBox="0 0 64 64" x="0px" y="0px"><title>atom 1</title><g data-name="Layer 8"><path d="M32,26.5A5.5,5.5,0,1,0,37.5,32,5.51,5.51,0,0,0,32,26.5Zm0,9A3.5,3.5,0,1,1,35.5,32,3.5,3.5,0,0,1,32,35.5Z"></path><path d="M56.25,18c-1.62-2.81-5.74-3.86-11.58-3-1.05.16-2.15.4-3.27.67-.26-.92-.55-1.8-.86-2.64A4,4,0,0,0,38,6a4.1,4.1,0,0,0-1.36.25A6.45,6.45,0,0,0,32,4c-3.93,0-7.34,4.58-9.41,11.71-1.11-.27-2.21-.51-3.26-.67-5.85-.9-10,.15-11.58,3-2,3.41.3,8.65,5.44,14q-1,1-1.86,2.07A4,4,0,0,0,8,34.34H8A4,4,0,0,0,6.48,39.8a4.19,4.19,0,0,0,.9,1.06A6.44,6.44,0,0,0,7.75,46c1.25,2.16,3.95,3.28,7.79,3.28A25,25,0,0,0,19.33,49c1.05-.16,2.15-.4,3.26-.67C24.66,55.42,28.07,60,32,60s7.34-4.58,9.41-11.71c.93.23,1.83.42,2.72.57,0,.12,0,.25.06.37A4,4,0,0,0,52,48.89,6.44,6.44,0,0,0,56.25,46c2-3.41-.29-8.65-5.44-14C56,26.65,58.21,21.41,56.25,18ZM45,17c4.9-.75,8.38,0,9.55,2,1.38,2.39-.48,6.79-5.11,11.6a57.23,57.23,0,0,0-6.22-5.07,55.67,55.67,0,0,0-1.28-7.88C43,17.39,44,17.16,45,17ZM36.75,40.23c-1.58.91-3.17,1.74-4.75,2.5-1.58-.76-3.17-1.59-4.75-2.5s-3.13-1.9-4.55-2.87c-.13-1.71-.2-3.49-.2-5.36s.07-3.65.2-5.36q2.18-1.49,4.55-2.87c1.58-.91,3.17-1.74,4.75-2.5,1.58.76,3.17,1.59,4.75,2.5s3.13,1.89,4.54,2.86q.21,2.63.21,5.37c0,1.87-.07,3.65-.2,5.36C39.88,38.33,38.37,39.29,36.75,40.23Zm4.29-.3a51.63,51.63,0,0,1-1,5.91,55,55,0,0,1-5.66-2.05c1.13-.58,2.27-1.18,3.4-1.83S40,40.62,41,39.93ZM29.65,43.79A55,55,0,0,1,24,45.84a51.63,51.63,0,0,1-1-5.91c1.05.69,2.15,1.37,3.29,2S28.51,43.21,29.65,43.79Zm-9-7.93A50.3,50.3,0,0,1,16,32a51.57,51.57,0,0,1,4.59-3.86c-.07,1.26-.11,2.54-.11,3.85S20.54,34.6,20.61,35.86ZM23,24.08a51.81,51.81,0,0,1,1-5.92,55,55,0,0,1,5.66,2.05c-1.14.58-2.27,1.18-3.4,1.83S24,23.38,23,24.08Zm11.39-3.87a54.4,54.4,0,0,1,5.63-2A52.89,52.89,0,0,1,41,24.06c-1.05-.69-2.15-1.36-3.28-2S35.49,20.79,34.35,20.21Zm9,7.92A51,51,0,0,1,48,32a52.2,52.2,0,0,1-4.6,3.86c.07-1.26.11-2.55.11-3.86S43.45,29.4,43.38,28.13ZM40,10a2,2,0,1,1-2-2A2,2,0,0,1,40,10ZM32,6a4.33,4.33,0,0,1,3,1.42A3.94,3.94,0,0,0,34,10a4,4,0,0,0,4,4,4.18,4.18,0,0,0,.72-.07q.41,1.11.75,2.31A57.43,57.43,0,0,0,32,19.08a57.88,57.88,0,0,0-7.5-2.85C26.35,9.8,29.23,6,32,6ZM9.48,19c1.17-2,4.65-2.74,9.55-2,1,.15,2,.38,3,.64a55.51,55.51,0,0,0-1.28,7.9,55.65,55.65,0,0,0-6.2,5.06C10,25.79,8.1,21.39,9.48,19ZM9,36.07a2,2,0,0,1,2.73.73,2,2,0,0,1,.2,1.52A2,2,0,0,1,11,39.54a2.06,2.06,0,0,1-1.52.2,1.94,1.94,0,0,1-1.21-.94A2,2,0,0,1,9,36.07ZM19,47c-4.91.75-8.38,0-9.55-2a4.38,4.38,0,0,1-.26-3.27,4.65,4.65,0,0,0,.73.08,4,4,0,0,0,3.86-3,4,4,0,0,0-.4-3,4.86,4.86,0,0,0-.42-.59q.75-.9,1.62-1.8a55.8,55.8,0,0,0,6.19,5.06,55.45,55.45,0,0,0,1.28,7.88C21,46.61,20,46.84,19,47ZM32,58c-2.77,0-5.65-3.8-7.5-10.23A57.88,57.88,0,0,0,32,44.92a56.46,56.46,0,0,0,7.5,2.85C37.65,54.2,34.77,58,32,58Zm17.79-8.8a2,2,0,0,1-3.67-.49,2,2,0,0,1,.2-1.51,2,2,0,0,1,1.21-.94,2.06,2.06,0,0,1,1.52.2A2,2,0,0,1,49.79,49.2ZM54.52,45a4.32,4.32,0,0,1-2.72,1.86,4,4,0,0,0-1.75-2.13,4,4,0,0,0-3-.4,4,4,0,0,0-2.73,2.53c-.77-.14-1.56-.31-2.37-.5a55.83,55.83,0,0,0,1.28-7.89,57.08,57.08,0,0,0,6.21-5.07C54,38.21,55.9,42.61,54.52,45Z"></path></g></svg>